<?xml version="1.0" encoding="UTF-8" standalone="no"?>
<!-- Created with Inkscape (http://www.inkscape.org/) -->

<svg
   width="297mm"
   height="210mm"
   viewBox="0 0 297 210"
   version="1.1"
   id="svg1"
   xml:space="preserve"
   inkscape:version="1.3.2 (091e20e, 2023-11-25, custom)"
   sodipodi:docname="types-of-chatbots.svg"
   xmlns:inkscape="http://www.inkscape.org/namespaces/inkscape"
   xmlns:sodipodi="http://sodipodi.sourceforge.net/DTD/sodipodi-0.dtd"
   xmlns="http://www.w3.org/2000/svg"
   xmlns:svg="http://www.w3.org/2000/svg"><sodipodi:namedview
     id="namedview1"
     pagecolor="#ffffff"
     bordercolor="#666666"
     borderopacity="1.0"
     inkscape:showpageshadow="2"
     inkscape:pageopacity="0.0"
     inkscape:pagecheckerboard="0"
     inkscape:deskcolor="#d1d1d1"
     inkscape:document-units="mm"
     inkscape:zoom="0.76702441"
     inkscape:cx="441.96768"
     inkscape:cy="450.44199"
     inkscape:window-width="1920"
     inkscape:window-height="1057"
     inkscape:window-x="-8"
     inkscape:window-y="-8"
     inkscape:window-maximized="1"
     inkscape:current-layer="layer1"><inkscape:page
       x="0"
       y="0"
       width="297"
       height="210"
       id="page16"
       margin="0"
       bleed="0" /></sodipodi:namedview><defs
     id="defs1" /><g
     inkscape:label="Ebene 1"
     inkscape:groupmode="layer"
     id="layer1"><rect
       style="fill:#ffffff;fill-opacity:1;stroke:none;stroke-width:1.41111;stroke-linecap:round;stroke-linejoin:round"
       id="rect19"
       width="297"
       height="210"
       x="0"
       y="0"
       ry="0" /><text
       xml:space="preserve"
       style="font-size:3.52778px;line-height:1.25;font-family:'Mal de Ojo';-inkscape-font-specification:'Mal de Ojo';letter-spacing:0px;stroke-width:0.264583"
       x="27.750261"
       y="189.01262"
       id="text7"><tspan
         sodipodi:role="line"
         id="tspan7"
         x="27.750261"
         y="189.01262"
         style="font-style:normal;font-variant:normal;font-weight:normal;font-stretch:normal;font-size:3.52778px;font-family:HelveticaNeue;-inkscape-font-specification:HelveticaNeue;stroke-width:0.264583">https://www.flaticon.com/free-icon/manufacturing_1814475</tspan><tspan
         sodipodi:role="line"
         x="27.750261"
         y="193.56369"
         style="font-style:normal;font-variant:normal;font-weight:normal;font-stretch:normal;font-size:3.52778px;font-family:HelveticaNeue;-inkscape-font-specification:HelveticaNeue;stroke-width:0.264583"
         id="tspan21">https://www.flaticon.com/free-icon/ai_2152343</tspan><tspan
         sodipodi:role="line"
         x="27.750261"
         y="198.11475"
         style="font-style:normal;font-variant:normal;font-weight:normal;font-stretch:normal;font-size:3.52778px;font-family:HelveticaNeue;-inkscape-font-specification:HelveticaNeue;stroke-width:0.264583"
         id="tspan20">https://github.com/ArtifactForms</tspan></text><g
       id="g20"
       transform="translate(-3.8146977e-7,0.68989548)"><rect
         style="fill:#f2f2f2;stroke:none;stroke-width:1.41111;stroke-linecap:round;stroke-linejoin:round"
         id="rect3"
         width="241.11847"
         height="149.70732"
         x="27.940762"
         y="23.592333"
         ry="10.122468" /><rect
         style="fill:#cccccc;stroke:none;stroke-width:1.41111;stroke-linecap:round;stroke-linejoin:round"
         id="rect2"
         width="110.49344"
         height="17.805786"
         x="93.253273"
         y="44.451691"
         ry="4.6007853" /><text
         xml:space="preserve"
         style="font-size:10.5833px;line-height:1.25;font-family:'Mal de Ojo';-inkscape-font-specification:'Mal de Ojo';letter-spacing:0px;stroke-width:0.264583"
         x="101.54191"
         y="56.788868"
         id="text2"><tspan
           sodipodi:role="line"
           id="tspan2"
           style="font-style:normal;font-variant:normal;font-weight:normal;font-stretch:normal;font-family:HelveticaNeue;-inkscape-font-specification:HelveticaNeue;stroke-width:0.264583"
           x="101.54191"
           y="56.788868">Types Of Chatbots</tspan></text><g
         id="g19"
         transform="translate(-0.30343079,-6.554007)"><g
           id="g18"
           transform="translate(3.9861931,1.379791)"><path
             style="fill:#000000;stroke-width:0.281582"
             d="m 95.55453,126.72808 c -0.207881,-0.1029 -0.382681,-0.267 -0.502888,-0.47212 -0.181105,-0.30903 -0.184262,-0.34291 -0.184904,-1.98415 l -5.63e-4,-1.66974 -0.986496,-0.321 c -0.542574,-0.17656 -1.434985,-0.54067 -1.983138,-0.80915 l -0.996641,-0.48813 -1.126659,1.11837 c -0.619666,0.6151 -1.233956,1.17199 -1.365094,1.23752 -0.274387,0.13713 -0.664713,0.15373 -0.967371,0.0411 -0.278836,-0.10372 -4.181398,-3.98978 -4.314823,-4.29657 -0.137905,-0.3171 -0.132005,-0.71792 0.0149,-1.01187 0.06553,-0.13114 0.622678,-0.74568 1.238098,-1.36566 l 1.118946,-1.12724 -0.483639,-0.97759 c -0.266002,-0.53767 -0.630371,-1.4299 -0.809713,-1.98272 l -0.326075,-1.00513 -1.669745,-5.6e-4 c -1.643682,-5.7e-4 -1.674678,-0.003 -1.985768,-0.1857 -0.210719,-0.12349 -0.368057,-0.29269 -0.472182,-0.50778 -0.150003,-0.30987 -0.156159,-0.43233 -0.156159,-3.10661 0,-2.67428 0.0062,-2.79674 0.156159,-3.10661 0.104125,-0.21509 0.261463,-0.38429 0.472182,-0.50778 0.31109,-0.18231 0.342086,-0.18521 1.985768,-0.1857 l 1.669745,-5.6e-4 0.326075,-1.00513 c 0.179342,-0.55283 0.543711,-1.44505 0.809713,-1.98273 l 0.483639,-0.97759 -1.118946,-1.127229 c -0.61542,-0.61998 -1.172563,-1.23453 -1.238098,-1.36566 -0.137122,-0.27439 -0.153721,-0.66472 -0.04114,-0.96738 0.103724,-0.27883 3.989782,-4.18139 4.296574,-4.31482 0.317095,-0.1379 0.717918,-0.132 1.011867,0.0149 0.131135,0.0655 0.745684,0.62268 1.365662,1.23809 l 1.127234,1.11895 0.977592,-0.48364 c 0.537675,-0.266 1.4299,-0.63037 1.982721,-0.80971 l 1.005131,-0.32608 5.64e-4,-1.66974 c 5.63e-4,-1.64368 0.0034,-1.67468 0.185697,-1.98577 0.123491,-0.21072 0.29269,-0.36805 0.507785,-0.47218 0.309866,-0.15 0.432326,-0.15616 3.106606,-0.15616 2.674284,0 2.796744,0.006 3.106614,0.15616 0.21509,0.10413 0.38429,0.26146 0.50778,0.47218 0.18238,0.3112 0.1852,0.34154 0.1852,1.98756 v 1.67153 l 0.62761,0.20309 c 0.34518,0.1117 0.67332,0.20309 0.72919,0.20309 0.0559,0 0.26723,-0.16816 0.46967,-0.3737 0.2143,-0.21757 0.47769,-0.40415 0.63046,-0.44659 0.14431,-0.0401 0.95489,-0.0731 1.80129,-0.0733 l 1.53891,-2.8e-4 0.11779,-0.34569 c 0.50004,-1.46753 1.99589,-2.38145 3.48098,-2.12679 0.88433,0.15165 1.59205,0.58329 2.08497,1.27165 0.42459,0.59293 0.6149,1.27581 0.5738,2.05887 -0.0278,0.52877 -0.0738,0.7061 -0.30524,1.17429 -0.52733,1.06699 -1.48557,1.69727 -2.66624,1.75372 -0.79006,0.0378 -1.27449,-0.0895 -1.91389,-0.50274 -0.54905,-0.35487 -1.07333,-1.02688 -1.25787,-1.61231 l -0.1275,-0.40447 h -1.45691 -1.4569 l -1.0998,1.09797 -1.0998,1.09797 v 2.10777 2.107769 l 0.97945,-0.0208 0.97944,-0.0208 0.10233,-0.351299 c 0.16229,-0.55716 0.67417,-1.23719 1.20438,-1.60003 0.63933,-0.43751 1.13008,-0.56877 1.98649,-0.53131 0.59003,0.0258 0.75553,0.0643 1.18347,0.27492 1.94351,0.95679 2.39404,3.554699 0.87918,5.069569 -1.09046,1.09046 -2.72205,1.25162 -4.02012,0.39708 -0.59555,-0.39206 -1.02669,-0.9935 -1.30949,-1.82672 -0.0408,-0.12022 -0.14814,-0.13045 -1.17316,-0.11175 l -1.12825,0.0206 -1.03312,1.8998 c -0.56822,1.04489 -1.03347,1.92957 -1.03389,1.96596 -2.9e-4,0.0364 0.13095,0.20908 0.29195,0.38373 0.30805,0.3342 0.52115,0.70566 0.6715,1.17052 l 0.0904,0.27938 h 3.85652 3.85652 l 0.0928,-0.31663 c 0.19945,-0.68092 0.70345,-1.34842 1.30913,-1.7338 1.33626,-0.85026 2.95929,-0.64203 4.04538,0.51901 0.55229,0.59039 0.76638,1.10127 0.81635,1.94799 0.0602,1.02019 -0.24081,1.77609 -0.98912,2.48381 -1.43122,1.35359 -3.72605,1.06776 -4.80282,-0.59821 -0.15198,-0.23513 -0.31932,-0.58111 -0.37188,-0.76883 l -0.0956,-0.34131 h -3.85863 -3.85863 l -0.0904,0.27938 c -0.15035,0.46485 -0.36346,0.83632 -0.67151,1.17052 -0.16099,0.17465 -0.29237,0.34733 -0.29195,0.38373 5.6e-4,0.0364 0.46567,0.92107 1.03389,1.96596 l 1.03313,1.8998 1.12825,0.0206 c 1.02521,0.0187 1.13229,0.008 1.17252,-0.11175 0.43842,-1.31049 1.35656,-2.12928 2.62198,-2.33826 2.04957,-0.33848 3.90524,1.51541 3.58557,3.58213 -0.16016,1.03552 -0.81932,1.93469 -1.75648,2.39605 -0.42794,0.21068 -0.59344,0.24913 -1.18347,0.27493 -0.85642,0.0375 -1.34716,-0.0938 -1.98649,-0.53131 -0.53022,-0.36284 -1.04209,-1.04288 -1.20438,-1.60003 l -0.10233,-0.3513 -0.97945,-0.0208 -0.97944,-0.0208 v 2.10594 2.10593 l 1.09796,1.09981 1.09797,1.0998 h 1.46266 1.46266 l 0.0956,-0.34131 c 0.12521,-0.44719 0.57288,-1.13284 0.93722,-1.43543 0.1597,-0.13263 0.50758,-0.34868 0.77306,-0.48011 0.45509,-0.2253 0.52966,-0.23896 1.30378,-0.23896 0.76841,0 0.85323,0.0152 1.32199,0.23729 1.0809,0.51204 1.76493,1.49751 1.83094,2.63782 0.0987,1.70429 -0.98402,3.07258 -2.65842,3.3597 -1.4851,0.25467 -2.98095,-0.65926 -3.48098,-2.12679 l -0.11779,-0.34568 h -1.54642 c -0.94975,0 -1.64413,-0.0325 -1.79966,-0.0841 -0.13929,-0.0463 -0.42194,-0.24743 -0.6281,-0.44701 -0.20617,-0.19959 -0.42209,-0.36288 -0.47983,-0.36288 -0.0577,0 -0.38355,0.0907 -0.72405,0.20161 l -0.61907,0.20161 v 1.67301 c 0,1.6476 -0.003,1.67782 -0.1852,1.98904 -0.12349,0.21072 -0.29269,0.36806 -0.50779,0.47218 -0.3099,0.15003 -0.43218,0.15616 -3.111506,0.1561 -2.690234,-5e-5 -2.800194,-0.006 -3.107555,-0.15778 z m 5.64552,-2.96708 c 0,-2.21385 -0.026,-2.14429 0.89402,-2.39173 0.30732,-0.0827 0.60674,-0.16724 0.66538,-0.18797 0.0752,-0.0266 -0.0156,-0.16312 -0.30816,-0.46324 -0.54035,-0.55438 -0.58072,-0.64579 -0.58072,-1.31467 0,-0.31002 -0.0267,-0.56367 -0.0594,-0.56367 -0.0327,0 -0.37471,0.0688 -0.76013,0.15295 -4.966991,1.08406 -10.17262,-1.367 -12.510804,-5.89069 -1.749779,-3.38531 -1.749779,-7.19174 0,-10.57705 1.549136,-2.997109 4.38708,-5.164029 7.704501,-5.882769 1.505392,-0.32616 3.335985,-0.32882 4.810573,-0.007 0.38307,0.0836 0.7232,0.15202 0.75586,0.15202 0.0327,0 0.0594,-0.25365 0.0594,-0.56367 0,-0.66888 0.0404,-0.76029 0.58072,-1.31467 0.29252,-0.30012 0.38335,-0.43666 0.30816,-0.46324 -0.0586,-0.0207 -0.35806,-0.10531 -0.66538,-0.18797 -0.92002,-0.24744 -0.89402,-0.17788 -0.89402,-2.39173 v -1.85839 h -2.533065 -2.533064 v 1.85839 c 0,2.28272 0.08232,2.11802 -1.248148,2.49724 -1.176808,0.33542 -2.007227,0.67872 -3.081717,1.274 -0.476045,0.26374 -0.943541,0.47952 -1.038884,0.47952 -0.125178,0 -0.547164,-0.37236 -1.518525,-1.33992 l -1.345175,-1.33993 -1.80568,1.804 -1.805676,1.804 1.340042,1.34717 c 1.004607,1.00995 1.33992,1.39264 1.339563,1.52885 -2.62e-4,0.0999 -0.184628,0.500169 -0.409702,0.889439 -0.541676,0.93684 -1.015203,2.07101 -1.339216,3.20762 -0.384005,1.34706 -0.216461,1.26249 -2.501363,1.26249 h -1.858391 v 2.53306 2.53307 h 1.858391 c 2.28272,0 2.118014,-0.0823 2.497235,1.24814 0.33542,1.17681 0.678721,2.00723 1.274005,3.08172 0.263735,0.47605 0.479519,0.94335 0.479519,1.03845 0,0.12455 -0.37485,0.54976 -1.340041,1.52009 l -1.340042,1.34717 1.805676,1.804 1.80568,1.80399 1.345175,-1.33992 c 0.971361,-0.96757 1.393347,-1.33992 1.518525,-1.33992 0.09534,0 0.562839,0.21578 1.038884,0.47952 1.07449,0.59528 1.904909,0.93858 3.081717,1.274 1.330471,0.37922 1.248148,0.21452 1.248148,2.49724 v 1.85839 h 2.533064 2.533065 z m 11.09577,0.32664 c 0.63692,-0.34666 0.97466,-0.92033 0.97188,-1.65081 -0.004,-1.07661 -0.81682,-1.88108 -1.90215,-1.88283 -1.67235,-0.003 -2.50238,1.9629 -1.34732,3.19058 0.59904,0.6367 1.49117,0.77108 2.27759,0.34306 z m -11.91529,-6.26207 c 0.3483,-0.0609 0.82604,-0.16378 1.06165,-0.22862 l 0.42839,-0.11789 v -1.23407 -1.23407 l -1.12547,-2.07144 c -0.619,-1.1393 -1.147037,-2.07125 -1.173405,-2.07102 -0.02636,2.4e-4 -0.238119,0.0316 -0.470562,0.0697 -1.302952,0.21343 -2.709345,-0.53514 -3.274522,-1.74289 -0.421325,-0.90035 -0.421325,-1.8632 0,-2.76354 0.565177,-1.20776 1.97157,-1.95632 3.274522,-1.7429 0.232443,0.0381 0.444195,0.0694 0.470562,0.0697 0.02636,2.4e-4 0.554405,-0.93172 1.173405,-2.07101 l 1.12547,-2.07145 v -1.234059 -1.23407 l -0.42839,-0.1179 c -1.20795,-0.33242 -2.536425,-0.45951 -3.647623,-0.34894 -2.54968,0.25372 -4.650167,1.24356 -6.396801,3.014459 -1.392134,1.41147 -2.292725,3.10561 -2.726876,5.12964 -0.231483,1.07918 -0.231483,2.89749 0,3.97667 0.190543,0.88832 0.525898,1.87312 0.872038,2.56081 0.653346,1.29803 1.911197,2.8029 3.014349,3.60631 2.303012,1.67727 5.080058,2.33633 7.823263,1.85666 z M 89.984134,107.63059 c -0.158536,-0.15854 -0.182738,-0.25023 -0.181887,-0.68914 0.0023,-1.17432 0.477303,-2.64157 1.228805,-3.79546 0.677776,-1.04067 1.922398,-2.19505 2.488805,-2.30833 0.183183,-0.0366 0.265337,-0.003 0.450528,0.18169 0.26079,0.26078 0.299442,0.58768 0.09611,0.8128 -0.07171,0.0794 -0.320372,0.28619 -0.552584,0.45956 -1.255328,0.93718 -2.188155,2.52954 -2.383662,4.06896 -0.04163,0.32781 -0.0917,0.70872 -0.111262,0.84647 -0.07834,0.55162 -0.666157,0.79214 -1.034855,0.42345 z m 19.003006,8.90918 c 0.99069,-0.45004 1.40589,-1.68784 0.88009,-2.62379 -0.7635,-1.35909 -2.5642,-1.35969 -3.3274,-0.001 -0.40773,0.72581 -0.2748,1.63418 0.32727,2.23625 0.36813,0.36813 0.76698,0.52479 1.33612,0.52479 0.30999,0 0.5921,-0.049 0.78392,-0.13613 z m -9.537888,-6.99427 c 0.592828,-0.29979 0.951968,-0.75153 1.091608,-1.37304 0.275,-1.22391 -0.910734,-2.45182 -2.17271,-2.25003 -0.492393,0.0787 -1.046856,0.46074 -1.311452,0.90353 -0.405895,0.67924 -0.405895,1.29575 0,1.975 0.242706,0.40616 0.825383,0.83292 1.227558,0.89909 0.308208,0.0507 0.919466,-0.0304 1.164996,-0.15455 z m 14.006348,-0.0127 c 0.34219,-0.15032 0.82289,-0.65153 0.97576,-1.01738 0.1344,-0.32168 0.1344,-1.0822 0,-1.40387 -0.12957,-0.31011 -0.59836,-0.83698 -0.86943,-0.97716 -1.44695,-0.74825 -3.11131,0.50859 -2.75889,2.08335 0.26994,1.20625 1.50566,1.81888 2.65256,1.31506 z m -4.38826,-7.02059 c 1.13711,-0.56791 1.37973,-2.12865 0.47199,-3.036379 -0.36812,-0.36813 -0.76698,-0.52479 -1.33611,-0.52479 -1.09895,0 -1.89739,0.80155 -1.8917,1.899059 0.007,1.40191 1.48827,2.29515 2.75582,1.66211 z m 3.08447,-7.593569 c 0.69964,-0.3167 1.11551,-0.96036 1.1168,-1.72853 0.001,-0.73553 -0.33449,-1.30118 -0.9861,-1.66138 -0.50741,-0.28049 -1.26357,-0.3041 -1.73249,-0.0541 -1.10812,0.59081 -1.41089,1.99881 -0.63279,2.94277 0.50443,0.61197 1.49774,0.83477 2.23458,0.50122 z"
             id="path1" /><text
             xml:space="preserve"
             style="font-size:8.14582px;line-height:1.25;font-family:'Mal de Ojo';-inkscape-font-specification:'Mal de Ojo';letter-spacing:0px;stroke-width:0.203646"
             x="75.007202"
             y="143.51073"
             id="text1"><tspan
               sodipodi:role="line"
               id="tspan1"
               x="75.007202"
               y="143.51073"
               style="font-style:normal;font-variant:normal;font-weight:normal;font-stretch:normal;font-family:HelveticaNeue;-inkscape-font-specification:HelveticaNeue;stroke-width:0.203646">Rule-Based</tspan></text></g><g
           id="g17"
           transform="translate(1.7848015e-6,1.379791)"><text
             xml:space="preserve"
             style="font-size:8.14582px;line-height:1.25;font-family:'Mal de Ojo';-inkscape-font-specification:'Mal de Ojo';letter-spacing:0px;stroke-width:0.203646"
             x="172.64662"
             y="143.51073"
             id="text1-3"><tspan
               sodipodi:role="line"
               id="tspan1-0"
               x="172.64662"
               y="143.51073"
               style="font-style:normal;font-variant:normal;font-weight:normal;font-stretch:normal;font-family:HelveticaNeue;-inkscape-font-specification:HelveticaNeue;stroke-width:0.203646">AI-Powered</tspan></text><g
             id="g12"
             transform="matrix(0.71941546,0,0,0.71941546,111.67391,153.4048)"><path
               style="fill:#000000;fill-opacity:1;stroke-width:0.412107"
               d="m 129.88312,-34.301118 c -1.11933,-0.506089 -1.74175,-1.498752 -1.74352,-2.780649 -8.3e-4,-0.589984 0.0578,-0.888402 0.24878,-1.265531 l 0.24984,-0.493506 -1.64006,-2.086413 -1.64006,-2.086413 -4.16135,-8.26e-4 -4.16135,-8.18e-4 -0.0773,0.845032 c -0.2678,2.927855 -1.89335,5.484197 -4.38955,6.902977 -0.3176,0.180511 -1.02906,0.484947 -1.58103,0.676521 -0.96339,0.334369 -1.0713,0.348205 -2.69366,0.345379 -1.54287,-0.0026 -1.76605,-0.02852 -2.56236,-0.296974 -1.29008,-0.434866 -2.3681,-1.083776 -3.3349,-2.00745 -1.40298,-1.340399 -2.20318,-2.788424 -2.564925,-4.641434 -0.171085,-0.876418 -0.210314,-0.961374 -0.469059,-1.016031 -0.676409,-0.142865 -1.917538,-0.628534 -2.542985,-0.995098 -0.857095,-0.502332 -1.979039,-1.639799 -2.512513,-2.54728 -0.83864,-1.426598 -1.23858,-3.482479 -0.962947,-4.949985 l 0.122359,-0.651476 -0.518751,-0.431256 c -2.276648,-1.892665 -3.879531,-4.657844 -4.398751,-7.588429 -0.199418,-1.12557 -0.168216,-3.440752 0.06105,-4.525015 0.35298,-1.66975 0.999351,-3.221332 1.930478,-4.634059 0.474112,-0.719326 2.129087,-2.464787 2.802904,-2.956135 l 0.369207,-0.269233 -0.185365,-0.739118 c -0.402583,-1.605258 -0.325837,-3.175842 0.227186,-4.649409 0.811664,-2.162725 2.866753,-3.998811 5.109207,-4.564732 l 0.761103,-0.192078 0.187843,-0.919952 c 0.386399,-1.892396 1.229919,-3.434969 2.569189,-4.698369 0.91189,-0.860225 1.81366,-1.422337 2.93968,-1.832434 4.83093,-1.759393 10.0971,0.996246 11.37314,5.951247 0.12166,0.472451 0.25144,1.411005 0.28838,2.085665 l 0.0671,1.226667 h 5.90002 5.90002 l 1.5021,-1.504987 1.5021,-1.504979 -0.21999,-0.484939 c -0.47468,-1.046372 -0.20409,-2.424148 0.64233,-3.270563 1.21937,-1.219371 3.14097,-1.1556 4.33391,0.143839 1.53833,1.675663 0.62381,4.37608 -1.65467,4.885977 -0.5046,0.112924 -0.70778,0.105401 -1.33477,-0.04948 l -0.73957,-0.182669 -1.47359,1.501813 c -0.81047,0.826005 -1.61441,1.612215 -1.78655,1.747148 l -0.31298,0.245335 h -6.14585 -6.14588 v 1.744583 1.744592 h 10.57601 10.57599 l 0.24129,-0.513325 c 0.29116,-0.619403 0.86707,-1.2167 1.45351,-1.507474 0.62616,-0.310463 2.01021,-0.296766 2.6207,0.02591 1.26703,0.669747 1.91317,2.127356 1.52894,3.449066 -0.38986,1.341051 -1.53428,2.207251 -2.89177,2.188762 -0.39396,-0.0052 -0.89734,-0.0875 -1.11861,-0.182503 -0.59059,-0.253588 -1.35173,-1.004525 -1.57944,-1.558271 l -0.19898,-0.483904 -10.60381,-4.09e-4 -10.60383,-4.08e-4 v 2.398806 2.398807 h 6.23965 6.23964 l 5.07291,5.063541 5.07291,5.063533 0.31568,-0.168667 c 0.17362,-0.09276 0.59616,-0.194096 0.93898,-0.225177 1.95569,-0.177338 3.55735,1.607083 3.16009,3.52069 -0.35502,1.710075 -2.08551,2.775432 -3.73116,2.297024 -0.70678,-0.205462 -1.51568,-0.872079 -1.84752,-1.522555 -0.32766,-0.642266 -0.38628,-1.659662 -0.13578,-2.356298 l 0.20068,-0.558094 -4.84734,-4.848261 -4.84733,-4.848261 h -5.9157 -5.91571 v 2.344289 2.344288 h 2.27496 2.27496 l 0.18496,-0.484313 c 0.22929,-0.600401 0.91487,-1.321197 1.51642,-1.594325 1.07267,-0.487036 2.66874,-0.16085 3.42447,0.699871 0.62363,0.710281 0.73526,1.018518 0.73629,2.032983 8.3e-4,0.814073 -0.0353,0.988419 -0.29677,1.433241 -0.62086,1.056147 -1.54179,1.556644 -2.74188,1.49016 -1.23267,-0.06827 -2.13955,-0.657902 -2.59477,-1.686995 l -0.2093,-0.473147 h -2.28466 -2.28468 v 2.344289 2.34428 h 6.43171 6.43169 l 0.16839,-0.40301 c 0.41068,-0.982871 1.35964,-1.707353 2.40793,-1.83833 1.72167,-0.215107 3.3244,1.215413 3.30523,2.950082 -0.0127,1.153669 -0.55081,2.083883 -1.5043,2.600668 -1.53905,0.834153 -3.4177,0.230073 -4.15056,-1.334598 l -0.26104,-0.557328 h -6.41452 -6.41453 v 2.344288 2.34428 h 4.0329 4.0329 l 0.16839,-0.403018 c 0.41067,-0.982862 1.35962,-1.707345 2.40792,-1.838322 1.72166,-0.215106 3.3244,1.215414 3.30522,2.950082 -0.0127,1.15367 -0.5508,2.083884 -1.5043,2.600669 -1.53904,0.834145 -3.41769,0.230073 -4.15055,-1.334598 l -0.26104,-0.557337 h -4.01571 -4.01573 v 2.344289 2.344297 h 4.5166 4.51659 l 0.48214,0.572434 c 0.26518,0.314846 1.10228,1.361879 1.86022,2.32674 l 1.37807,1.754296 0.64043,-0.166858 c 2.06086,-0.536918 4.06994,1.402387 3.62108,3.495331 -0.3049,1.421702 -1.48633,2.371743 -2.94939,2.371743 -0.4793,0 -0.86759,-0.07183 -1.19941,-0.221846 z m 1.81786,-1.402169 c 1.4808,-0.672321 1.00866,-2.84169 -0.61846,-2.84169 -1.2134,0 -1.92467,1.335902 -1.25524,2.357577 0.17942,0.273816 0.93701,0.690662 1.25524,0.690662 0.09,0 0.36826,-0.09295 0.61846,-0.206549 z m -21.62375,-0.177555 c 1.46847,-0.374425 2.85567,-1.272471 3.82673,-2.47737 0.58697,-0.728327 0.84484,-1.185342 1.22468,-2.170595 l 0.30712,-0.796602 0.0303,-20.33534 c 0.034,-22.776192 0.0902,-21.100554 -0.76509,-22.819935 -0.62132,-1.249051 -1.85574,-2.483475 -3.1048,-3.104792 -1.23158,-0.612637 -2.27572,-0.830265 -3.66929,-0.764799 -1.88188,0.0884 -3.3078,0.7279 -4.6989,2.107363 -1.22242,1.212222 -1.90526,2.709913 -2.08536,4.573941 -0.0405,0.419795 -0.14374,0.843824 -0.22928,0.942285 -0.0893,0.102748 -0.41837,0.211871 -0.77239,0.256101 -1.548186,0.193435 -2.787967,0.835258 -3.863072,1.999893 -1.488603,1.612553 -1.928478,3.828196 -1.188107,5.984485 0.22055,0.642353 0.310471,1.064774 0.25678,1.206265 -0.04548,0.119749 -0.475173,0.508724 -0.95493,0.864382 -2.261968,1.676846 -3.751684,4.013055 -4.331101,6.792157 -0.30688,1.471906 -0.228517,3.671999 0.180581,5.070203 0.713542,2.438697 1.950671,4.256895 4.026692,5.917992 l 0.748467,0.598871 -0.05983,0.503332 c -0.03287,0.276834 -0.109715,0.819404 -0.170694,1.205717 -0.124655,0.789715 -0.01522,1.957055 0.254866,2.719445 0.733171,2.069282 2.601556,3.602976 4.852549,3.983262 1.014409,0.171381 1.204219,0.312124 1.204219,0.892941 0,0.556737 0.28578,1.896675 0.54362,2.548916 0.35155,0.889254 1.12638,1.988057 1.8882,2.677727 0.72994,0.66079 2.04751,1.369167 3.02001,1.623676 0.81806,0.214081 2.68918,0.214341 3.52796,4.09e-4 z m -2.54662,-2.371709 c -2.04645,-0.46105 -3.50044,-2.098458 -3.76348,-4.238241 -0.0703,-0.571417 -0.0543,-0.642171 0.20311,-0.89955 0.3509,-0.35091 0.66016,-0.354519 1.00296,-0.01174 0.19189,0.191887 0.26764,0.386992 0.26764,0.689314 0,1.533608 1.5438,3.077407 3.0774,3.077407 0.47134,0 0.95696,0.378669 0.95696,0.746224 0,0.614194 -0.70388,0.871034 -1.74459,0.63657 z m 2.3988,-6.572894 c -2.48418,-0.663051 -4.39489,-2.577518 -5.02282,-5.032722 -0.39367,-1.539252 -0.2194,-2.425427 0.47696,-2.425427 0.49553,0 0.63494,0.228386 0.79447,1.301552 0.20304,1.366001 0.69551,2.385397 1.57938,3.269268 0.96756,0.967557 2.51437,1.644269 3.75841,1.644269 0.69303,0 1.09147,0.80402 0.61301,1.237025 -0.25338,0.229298 -1.35161,0.232316 -2.19941,0.0061 z m -9.73506,-1.471123 c -1.324798,-0.31195 -2.401434,-1.412353 -2.758466,-2.819359 -0.306358,-1.207308 -0.04444,-2.077299 0.62543,-2.077299 0.517551,0 0.746363,0.335343 0.746363,1.093863 0,0.361746 0.06774,0.819813 0.1505,1.017926 0.239735,0.573766 0.90529,1.143165 1.558003,1.332912 0.88891,0.258415 1.15151,0.792576 0.64074,1.303343 -0.28822,0.288217 -0.33744,0.295818 -0.96257,0.148614 z m 2.78665,-9.098827 c -2.05625,-0.553823 -3.744894,-2.283057 -4.227233,-4.328832 -0.23142,-0.98154 -0.213801,-1.639721 0.05027,-1.878725 0.470564,-0.425856 1.203023,-0.09957 1.203023,0.5359 0,0.470851 0.27992,1.503222 0.5524,2.037348 0.30617,0.600132 1.02182,1.358183 1.6047,1.69977 0.99822,0.584992 1.20136,0.617838 4.21003,0.68054 l 2.82346,0.05888 0.21383,0.286738 c 0.22884,0.306906 0.19568,0.619612 -0.0967,0.912013 -0.2305,0.23049 -5.47571,0.227498 -6.33379,-0.0035 z m -10.327711,-5.635393 c -0.217645,-0.310732 -0.216741,-1.064113 0.0026,-2.133809 0.722804,-3.525577 3.567686,-6.17992 7.162539,-6.682808 1.314602,-0.183904 1.824232,-8.7e-4 1.824232,0.654024 0,0.484078 -0.32338,0.679374 -1.28554,0.776374 -1.084393,0.109314 -1.656888,0.263441 -2.464656,0.663503 -2.26703,1.122796 -3.691471,3.209192 -3.936362,5.765648 -0.04635,0.483956 -0.14724,0.895663 -0.247144,1.008595 -0.24637,0.278486 -0.844946,0.249274 -1.055634,-0.05148 z m 11.388141,-1.905032 c -0.44974,-0.160736 -0.58448,-0.846649 -0.22944,-1.167965 0.11511,-0.104166 0.52752,-0.232499 0.93064,-0.289591 1.34751,-0.190826 2.43601,-0.97641 2.98992,-2.157881 0.28286,-0.603324 0.28872,-0.661251 0.28872,-2.851091 v -2.235253 l -0.37368,-0.689209 c -0.6759,-1.246617 -1.75211,-1.923303 -3.27185,-2.057228 -0.81248,-0.07157 -1.09757,-0.254754 -1.09757,-0.705116 0,-0.510802 0.3369,-0.746354 1.06746,-0.746354 2.21729,0 4.19757,1.446243 4.93494,3.604089 0.29729,0.869965 0.4141,3.275103 0.22752,4.684168 -0.24214,1.82866 -1.30857,3.347857 -2.86921,4.087402 -1.02109,0.483869 -2.10049,0.701637 -2.59745,0.524029 z m 0.37785,-17.473942 c -0.41994,-0.170215 -0.52057,-0.405297 -0.45819,-1.07034 0.14218,-1.516118 1.07455,-2.857969 2.45956,-3.539813 0.68463,-0.337039 0.78869,-0.356301 1.92544,-0.356301 1.10852,0 1.25242,0.02487 1.85591,0.320411 1.28879,0.631196 2.22214,1.895596 2.44432,3.311271 0.12704,0.809473 0.0241,1.178671 -0.37067,1.328745 -0.54826,0.208445 -1.0378,-0.190121 -1.0378,-0.844962 0,-0.479443 -0.29729,-1.249173 -0.64575,-1.671907 -0.17191,-0.208558 -0.57534,-0.524734 -0.89651,-0.70262 -0.50366,-0.278955 -0.6964,-0.323081 -1.40172,-0.320915 -0.9699,0.0026 -1.48501,0.228881 -2.11699,0.928413 -0.46872,0.518821 -0.66108,0.927292 -0.76825,1.631399 -0.11422,0.750415 -0.15097,0.829631 -0.44761,0.964791 -0.1516,0.06905 -0.28559,0.122472 -0.29776,0.118672 -0.0122,-0.0035 -0.12196,-0.0474 -0.24398,-0.09684 z m 24.24188,31.943286 c 0.37041,-0.168111 0.51474,-0.317872 0.69152,-0.717509 0.30054,-0.679426 0.20501,-1.160922 -0.33807,-1.704005 -0.36133,-0.361328 -0.47931,-0.414272 -0.92318,-0.414272 -0.63233,0 -1.09782,0.232525 -1.37478,0.686775 -0.50214,0.823517 -0.0717,1.981587 0.83772,2.254133 0.46543,0.139482 0.59495,0.127177 1.10679,-0.105122 z m 4.79761,-6.106062 c 0.37041,-0.168111 0.51474,-0.317864 0.69153,-0.7175 0.30054,-0.679417 0.20501,-1.16093 -0.33808,-1.704005 -0.36133,-0.361328 -0.47931,-0.414272 -0.92318,-0.414272 -0.63234,0 -1.09782,0.232526 -1.37479,0.686766 -0.50212,0.823526 -0.0717,1.981596 0.83774,2.254151 0.46542,0.139473 0.59495,0.127167 1.10678,-0.10514 z m 8.49486,-0.323525 c 0.67087,-0.409045 0.8909,-1.358374 0.4735,-2.042923 -0.43166,-0.707941 -1.14656,-0.928605 -1.91181,-0.590096 -0.40785,0.180408 -0.54167,0.31482 -0.72415,0.727378 -0.30103,0.680505 -0.20574,1.16167 0.33761,1.705023 0.3664,0.366407 0.47562,0.414237 0.94502,0.413872 0.3339,-2.61e-4 0.66024,-0.0794 0.87983,-0.213254 z m -16.82631,-5.82554 c 0.75783,-0.316637 1.12683,-1.308257 0.75442,-2.027339 -0.75429,-1.456391 -2.86793,-0.957103 -2.86793,0.67747 0,0.550275 0.25374,0.956859 0.80811,1.294907 0.40032,0.244118 0.81129,0.261424 1.3054,0.05496 z m 16.76007,-12.338769 c 0.92581,-0.478756 1.00467,-1.867907 0.14443,-2.544567 -0.4456,-0.35051 -0.92746,-0.393827 -1.51072,-0.135821 -0.41406,0.183155 -0.54678,0.315872 -0.72993,0.729944 -0.15557,0.351675 -0.20285,0.618125 -0.15497,0.87333 0.0775,0.412968 0.52606,1.001551 0.8691,1.140329 0.36764,0.148726 1.0309,0.118393 1.38209,-0.06322 z m -6.76028,-10.358477 c 0.92583,-0.478756 1.00468,-1.867907 0.14444,-2.544577 -0.44559,-0.350501 -0.92745,-0.393818 -1.51072,-0.135821 -0.41407,0.183165 -0.54677,0.315881 -0.72994,0.729944 -0.15556,0.351684 -0.20284,0.618125 -0.15496,0.873339 0.0775,0.412968 0.52606,1.001551 0.86909,1.14032 0.36766,0.148735 1.03091,0.118402 1.38209,-0.06322 z m 2.93305,39.871875 c -1.24775,-0.409358 -2.18002,-1.650878 -2.18002,-2.903165 0,-1.553026 1.44548,-2.998505 2.9985,-2.998505 1.55304,0 2.99851,1.445479 2.99851,2.998505 0,1.037685 -0.73294,2.210677 -1.68516,2.696929 -0.47878,0.244483 -1.66535,0.359276 -2.13183,0.206236 z m 1.20631,-1.431085 c 1.14959,-0.319359 1.48941,-1.776229 0.60365,-2.587963 -0.34081,-0.312332 -0.46268,-0.35611 -0.99148,-0.35611 -0.52837,0 -0.6506,0.04383 -0.98869,0.354371 -1.0049,0.923057 -0.46986,2.462978 0.93417,2.688676 0.03,0.0052 0.22904,-0.03974 0.44235,-0.09897 z m -1.04204,-19.291976 c -1.35481,-0.327716 -2.34429,-1.580142 -2.34429,-2.967275 0,-0.99715 0.7189,-2.118955 1.69006,-2.637237 0.62105,-0.331438 1.99643,-0.330655 2.62179,0.0017 0.9622,0.511063 1.68516,1.671958 1.68516,2.705964 0,1.198656 -0.94953,2.491606 -2.07536,2.825941 -0.61327,0.182121 -1.0391,0.201322 -1.57736,0.07114 z m 1.35977,-1.586977 c 1.36263,-0.704637 0.83234,-2.836594 -0.70556,-2.836594 -0.50949,0 -0.91332,0.230534 -1.29179,0.737458 -0.26604,0.356336 -0.27674,1.170661 -0.0205,1.561714 0.41493,0.633257 1.35063,0.882462 2.01786,0.537422 z"
               id="path12" /></g></g></g></g><text
       xml:space="preserve"
       style="font-size:3.52778px;line-height:1.25;font-family:'Mal de Ojo';-inkscape-font-specification:'Mal de Ojo';letter-spacing:0px;stroke-width:0.264583"
       x="27.750261"
       y="187.13412"
       id="text19"><tspan
         sodipodi:role="line"
         id="tspan19"
         style="font-style:normal;font-variant:normal;font-weight:normal;font-stretch:normal;font-size:3.52778px;font-family:HelveticaNeue;-inkscape-font-specification:HelveticaNeue;stroke-width:0.264583"
         x="27.750261"
         y="187.13412" /></text></g></svg>
